# xmcd
#
# Track frame offsets:
#	150
#	15289
#	46477
#	77699
#	105674
#	136477
#	159617
#
# Disc length: 2365 seconds
#
# Revision: 0
# Processed by: cddbd v1.5.1PL0 Copyright (c) Steve Scherf et al.
# Submitted via: dBpowerAMP V4.0
#
DISCID=4d093b07
DTITLE=The Swimmer feat. Larenzo Nash - MAXI - The 1 and only Dominator
DYEAR=1998
DGENRE=
TTITLE0=The 1 and only Dominator (Radio Edit Original Dance)
TTITLE1=The 1 and only Dominator (Original Dance Mix)
TTITLE2=The 1 and only Dominator (Aquarius Remix)
TTITLE3=The 1 and only Dominator (R.D.L. Remix)
TTITLE4=The 1 and only Dominator (Roger Ruff Remix)
TTITLE5=The 1 and only Dominator (Fourth to the Floor Mix)
TTITLE6=The 1 and only Dominator (Short Version Aquarius Remix)
EXTD=
EXTT0=
EXTT1=
EXTT2=
EXTT3=
EXTT4=
EXTT5=
EXTT6=
PLAYORDER=
